<svg xmlns="http://www.w3.org/2000/svg" viewBox="0 0 256 256">
  <path fill="#f93" d="M244 256H12c-6.6 0-12-5.4-12-12V12C0 5.4 5.4 0 12 0h232c6.6 0 12 5.4 12 12v232c0 6.6-5.4 12-12 12z"/>
  <linearGradient id="a" x1="128" x2="128" y1="256" y2="79.006" gradientUnits="userSpaceOnUse">
    <stop offset="0" stop-color="#f93"/>
    <stop offset="1" stop-color="#ff8137"/>
  </linearGradient>
  <path fill="url(#a)" d="M209.7 86.4c-4.5 0-8.6-1.6-11.9-4.2l-48.9 54c2.4 3.2 3.9 7.2 3.9 11.5 0 10.5-8.5 19-19 19s-19-8.5-19-19c0-3 .7-5.9 2-8.5L91 117.6c-3.4 5.1-9.2 8.4-15.8 8.4-7.1 0-13.3-3.9-16.6-9.8L0 157.9V244c0 6.6 5.4 12 12 12h232c6.6 0 12-5.4 12-12V99.2L224.7 79c-3.5 4.5-8.9 7.4-15 7.4z"/>
  <path fill="#fff" d="M75.2 126.1c6.6 0 12.4-3.3 15.8-8.4l25.8 21.6c-1.3 2.6-2 5.4-2 8.5 0 10.5 8.5 19 19 19s19-8.5 19-19c0-4.3-1.5-8.3-3.9-11.5l48.9-54c3.3 2.6 7.4 4.2 11.9 4.2 6.1 0 11.5-2.9 15-7.4L256 99.2v-7.1l-28.4-18.3c.7-2 1.1-4.1 1.1-6.3 0-10.5-8.5-19-19-19s-19 8.5-19 19c0 3.8 1.1 7.4 3.1 10.3l-49.2 54.3c-3.1-2.1-6.8-3.4-10.8-3.4-5.3 0-10 2.2-13.5 5.6L93.5 112c.4-1.6.7-3.2.7-4.9 0-10.5-8.5-19-19-19s-19 8.5-19 19c0 1.2.1 2.3.3 3.4L0 150.6v7.4l58.6-41.6c3.3 5.7 9.5 9.7 16.6 9.7zm134.5-69.7c6.1 0 11 4.9 11 11s-4.9 11-11 11-11-4.9-11-11 4.9-11 11-11zm-75.9 80.3c6.1 0 11 4.9 11 11s-4.9 11-11 11-11-4.9-11-11 4.9-11 11-11zM75.2 96.1c6.1 0 11 4.9 11 11s-4.9 11-11 11-11-4.9-11-11 4.9-11 11-11z"/>
</svg>
